<svg width="178" height="184" viewBox="0 0 178 184" fill="none" xmlns="http://www.w3.org/2000/svg">
<path d="M11.6645 25C6.38055 25 3.00168 30.6304 5.48748 35.2931L78.2299 171.739C80.8834 176.716 88.0325 176.672 90.6242 171.662L111.475 131.359C111.753 130.822 111.49 130.166 110.951 129.891C106.924 127.839 105.308 123.213 105 121V109.652C105 108.566 104.771 107.472 104.658 106.391C104.495 104.828 104.483 102.139 105 98C105.8 91.6 112 89.3333 115 89C116.816 88.8603 118.918 88.5361 121.099 88.1048L136 83.9543L155.665 44.1963C156.516 42.4749 156.651 40.4658 155.89 38.7026C154.031 34.3947 151.984 31.644 148.268 28.4547C147.14 27.4865 145.699 26.9692 144.214 26.9121L94.5 25C93.7 25 89.1667 28.3333 87 30C78.5448 38.4552 80.2395 38.967 77.9881 43.9731C77.6795 44.6592 77.4691 45.3868 77.2732 46.1132C76.5246 48.8893 74.6278 50.4322 72.5 52C68.6099 54.8292 64.0423 53.4374 61.769 52.0402C61.2364 51.7129 60.6993 51.3888 60.166 51.0626C56.7487 48.9725 55.9706 44.5064 55.9774 41.3728C55.9787 40.7921 56.0864 40.2193 56.2571 39.6643L58 34L61.375 26.4061C61.6689 25.7449 61.1849 25 60.4612 25L11.6645 25Z" fill="white"/>
<path d="M126.737 105.386C125.683 105.601 124.735 106.174 124.055 107.007C123.375 107.841 123.003 108.884 123.003 109.96V119.998C123.003 121.855 122.266 123.635 120.953 124.948C119.64 126.261 117.86 126.998 116.003 126.998C114.146 126.998 112.366 126.261 111.053 124.948C109.74 123.635 109.003 121.855 109.003 119.998V99.8278C109.003 98.0563 109.675 96.3509 110.883 95.0552C112.091 93.7596 113.746 92.9702 115.513 92.8462C123.811 92.2675 136.014 89.4394 145.917 83.1252C155.582 76.9557 162.671 67.7946 162.671 53.9388C162.671 40.5916 157.72 31.3373 150.528 25.2004C143.164 18.9142 132.916 15.47 121.911 15.0407C99.1323 14.1493 77.9029 25.8211 73.8334 43.9938C73.428 45.8058 72.3195 47.3826 70.7515 48.3772C69.1836 49.3719 67.2848 49.703 65.4728 49.2976C63.6607 48.8923 62.0839 47.7837 61.0893 46.2158C60.0946 44.6478 59.7635 42.749 60.1689 40.937C63.277 27.0578 72.242 16.8981 83.8484 10.2478C95.5155 3.56025 109.661 0.550138 122.462 1.05416C135.846 1.57684 149.343 5.78166 159.619 14.5507C170.073 23.4737 176.672 36.6901 176.672 53.9388C176.672 73.7169 166.078 86.868 153.45 94.9277C144.9 100.383 135.249 103.655 126.741 105.381L126.737 105.386ZM104.336 161.999C104.336 158.286 105.811 154.725 108.437 152.1C111.062 149.474 114.623 147.999 118.336 147.999C122.05 147.999 125.611 149.474 128.236 152.1C130.862 154.725 132.337 158.286 132.337 161.999C132.337 165.713 130.862 169.274 128.236 171.899C125.611 174.525 122.05 176 118.336 176C114.623 176 111.062 174.525 108.437 171.899C105.811 169.274 104.336 165.713 104.336 161.999Z" fill="white" stroke="white" stroke-width="2" stroke-linecap="round" stroke-linejoin="round"/>
</svg>
