<svg width="24" height="24" viewBox="0 0 24 24" fill="none" xmlns="http://www.w3.org/2000/svg"><rect x="1.5" y="5.5" width="17" height="17" rx="3.5" stroke="currentColor"></rect><path d="M4.5 14V10C4.5 9.72386 4.72386 9.5 5 9.5H15C15.2761 9.5 15.5 9.72386 15.5 10V14C15.5 14.2761 15.2761 14.5 15 14.5H13.5V16C13.5 16.2761 13.2761 16.5 13 16.5H11.5V18C11.5 18.2761 11.2761 18.5 11 18.5H9C8.72386 18.5 8.5 18.2761 8.5 18V16.5H7C6.72386 16.5 6.5 16.2761 6.5 16V14.5H5C4.72386 14.5 4.5 14.2761 4.5 14Z" stroke="currentColor"></path><path d="M6.5 9.5V12M8.5 9.5V12M11.5 9.5V12M13.5 9.5V12" stroke="currentColor"></path><path fill-rule="evenodd" clip-rule="evenodd" d="M11.4001 2H16.6001C17.7367 2 18.529 2.00078 19.1459 2.05118C19.751 2.10062 20.0987 2.19279 20.3621 2.32698C20.9265 2.6146 21.3855 3.07354 21.6731 3.63803C21.8073 3.90138 21.8995 4.24907 21.9489 4.85424C21.9993 5.47108 22.0001 6.26339 22.0001 7.4V12.6C22.0001 13.7366 21.9993 14.5289 21.9489 15.1458C21.8995 15.7509 21.8073 16.0986 21.6731 16.362C21.3855 16.9265 20.9265 17.3854 20.3621 17.673C20.2581 17.726 20.1409 17.7724 20 17.8123V18.8407C20.3067 18.7772 20.5721 18.6883 20.8161 18.564C21.5687 18.1805 22.1806 17.5686 22.5641 16.816C23.0001 15.9603 23.0001 14.8402 23.0001 12.6V7.4C23.0001 5.15979 23.0001 4.03969 22.5641 3.18404C22.1806 2.43139 21.5687 1.81947 20.8161 1.43597C19.9604 1 18.8403 1 16.6001 1H11.4001C9.15988 1 8.03978 1 7.18413 1.43597C6.43148 1.81947 5.81956 2.43139 5.43607 3.18404C5.3118 3.42793 5.22295 3.69332 5.15942 4H6.18784C6.22767 3.8591 6.2741 3.74199 6.32707 3.63803C6.61469 3.07354 7.07363 2.6146 7.63812 2.32698C7.90148 2.19279 8.24916 2.10062 8.85433 2.05118C9.47117 2.00078 10.2635 2 11.4001 2Z" fill="currentColor"></path></svg>