<svg xmlns="http://www.w3.org/2000/svg" width="24" height="24" fill="none" viewBox="0 0 24 24"><path fill="currentColor" fill-rule="evenodd" d="M5 9.62793C4.46391 10.0012 4.03147 10.5247 3.76923 11.1541L2.11538 15.1233C2.03922 15.3061 2 15.5022 2 15.7002V19.5002C2 21.4332 3.567 23.0002 5.5 23.0002H18.5C20.433 23.0002 22 21.4332 22 19.5002V15.7002C22 15.5022 21.9608 15.3061 21.8846 15.1233L20.2308 11.1541C19.9685 10.5247 19.5361 10.0012 19 9.62793V10.9999H18.9999C19.1227 11.1636 19.2266 11.3441 19.3077 11.5387L20.9615 15.5079C20.9869 15.5688 21 15.6342 21 15.7002V19.5002C21 20.8809 19.8807 22.0002 18.5 22.0002H5.5C4.11929 22.0002 3 20.8809 3 19.5002V15.7002C3 15.6342 3.01307 15.5688 3.03846 15.5079L4.69231 11.5387C4.77339 11.3441 4.87726 11.1636 5.00005 10.9999H5V9.62793Z" clip-rule="evenodd"/><path stroke="currentColor" d="M15.5 15.5H21.5M2.5 15.5H8.5"/><path fill="currentColor" fill-rule="evenodd" d="M8 15C8 17.2091 9.79086 19 12 19C14.2091 19 16 17.2091 16 15H15C15 16.6569 13.6569 18 12 18C10.3431 18 9 16.6569 9 15H8Z" clip-rule="evenodd"/><path stroke="currentColor" d="M7.5 3V8"/><path stroke="currentColor" d="M16.5 2V8"/><path stroke="currentColor" d="M13.5 0V7"/><path stroke="currentColor" d="M10.5 1V7"/><path stroke="currentColor" d="M5.5 15.5V13.5C5.5 12.9477 5.94772 12.5 6.5 12.5H17.5C18.0523 12.5 18.5 12.9477 18.5 13.5V15.5"/><path stroke="currentColor" d="M7.5 12.5V10.5C7.5 9.94772 7.94772 9.5 8.5 9.5H15.5C16.0523 9.5 16.5 9.94772 16.5 10.5V12.5"/></svg>